<svg xmlns="http://www.w3.org/2000/svg" width="44" height="44" fill="none" viewBox="0 0 44 44">
  <circle cx="22" cy="22" r="22" fill="#F6F6F6"/>
  <path fill="#23272C" d="M19.376 33c-.376 0-.696-.31-.729-.706v-.007l-.002-1.453h.002l-.007-3.386c-.002-.641.214-1.197.68-1.75.286-.341 6.522-7.827 8.984-10.784L12.302 23.74l5.35 1.773-.458 1.458-.245-.078-6.337-2.12a.876.876 0 01-.608-.78c-.038-.433.21-.854.645-1.096.659-.367 19.244-10.284 19.88-10.622.038-.037.098-.08.193-.134.116-.065.294-.142.487-.142a.67.67 0 01.305.07c.593.296.497.852.45 1.12l-.013.079c-.026.158-.622 3.304-1.876 9.896l-.457 2.404c-.423 2.228-.73 3.838-.763 4.026-.13.716-.683 1.216-1.345 1.216-.127 0-.255-.02-.38-.059-.421-.129-3.744-1.203-5.341-1.72l-.865-.28-.26-.088.47-1.469.243.08c.055.018 5.381 1.728 6.046 1.943.162-.854 2.07-10.9 2.678-14.109l-8.805 10.576-.99 1.19c-.101.124-.205.41-.197.654.012.325.001 4.57 0 4.752v.014c-.034.395-.356.705-.733.705z"/>
</svg>
