<svg xmlns="http://www.w3.org/2000/svg" width="68" height="68" fill="none" viewBox="0 0 68 68">
  <rect width="68" height="68" fill="#EB5E52" rx="34"/>
  <path fill="#fff" fill-opacity=".01" d="M50 19H18v32h32V19z"/>
  <path fill="#fff" fill-rule="evenodd" d="M38.667 26.334a4.667 4.667 0 10-9.334 0V35a4.667 4.667 0 109.334 0v-8.666zM24 33.584a.75.75 0 01.75.75 9.25 9.25 0 009.25 9.25 9.25 9.25 0 009.25-9.25.75.75 0 011.5 0c0 5.684-4.413 10.339-10 10.724v3.276a.75.75 0 01-1.5 0v-3.276c-5.587-.385-10-5.04-10-10.724a.75.75 0 01.75-.75z" clip-rule="evenodd"/>
  <path fill="#fff" d="M34.75 45.058l-.034-.5a.5.5 0 00-.466.5h.5zm-1.5 0h.5a.5.5 0 00-.466-.5l-.034.5zM34 22.167a4.167 4.167 0 014.167 4.167h1A5.167 5.167 0 0034 21.167v1zm-4.166 4.167A4.167 4.167 0 0134 22.167v-1a5.167 5.167 0 00-5.166 5.167h1zm0 8.666v-8.666h-1V35h1zM34 39.167A4.167 4.167 0 0129.834 35h-1A5.167 5.167 0 0034 40.167v-1zM38.167 35A4.167 4.167 0 0134 39.167v1A5.167 5.167 0 0039.167 35h-1zm0-8.666V35h1v-8.666h-1zm-12.917 8c0-.69-.56-1.25-1.25-1.25v1a.25.25 0 01.25.25h1zm8.75 8.75a8.75 8.75 0 01-8.75-8.75h-1c0 5.384 4.365 9.75 9.75 9.75v-1zm8.75-8.75a8.75 8.75 0 01-8.75 8.75v1c5.385 0 9.75-4.366 9.75-9.75h-1zm1.25-1.25c-.69 0-1.25.56-1.25 1.25h1a.25.25 0 01.25-.25v-1zm1.25 1.25c0-.69-.56-1.25-1.25-1.25v1a.25.25 0 01.25.25h1zM34.784 45.556c5.848-.403 10.466-5.274 10.466-11.224h-1c0 5.42-4.208 9.859-9.534 10.226l.068.998zm-.534-.5v3.276h1v-3.275h-1zm0 3.276a.25.25 0 01-.25.25v1c.69 0 1.25-.56 1.25-1.25h-1zm-.25.25a.25.25 0 01-.25-.25h-1c0 .69.56 1.25 1.25 1.25v-1zm-.25-.25v-3.275h-1v3.276h1zm-11-14c0 5.95 4.618 10.82 10.466 11.224l.068-.998c-5.326-.367-9.534-4.805-9.534-10.225h-1zm1.25-1.25c-.69 0-1.25.56-1.25 1.25h1a.25.25 0 01.25-.25v-1z"/>
</svg>
