<svg xmlns="http://www.w3.org/2000/svg" width="44" height="44" fill="none" viewBox="0 0 44 44">
  <circle cx="22" cy="22" r="22" fill="#F6F6F6"/>
  <g clip-path="url(#clip0)">
    <path fill="#fff" fill-opacity=".01" d="M37.4 6.6H6.6v30.8h30.8V6.6z"/>
    <path fill="#23272C" d="M15.73 20.456a.846.846 0 01-.436.26 4.812 4.812 0 00-3.695 4.678 4.811 4.811 0 006.13 4.627.85.85 0 11.463 1.633 6.523 6.523 0 01-1.78.246A6.51 6.51 0 019.9 25.394a6.509 6.509 0 014.55-6.205 7.642 7.642 0 017.625-7.09 7.642 7.642 0 017.63 7.14 6.508 6.508 0 014.395 6.155 6.51 6.51 0 01-6.513 6.506 6.523 6.523 0 01-1.779-.246.848.848 0 11.463-1.633c.418.118.859.181 1.316.181a4.811 4.811 0 004.814-4.808 4.812 4.812 0 00-3.695-4.678.85.85 0 01-.648-.732.846.846 0 01-.037-.247c0-3.28-2.662-5.94-5.946-5.94a5.943 5.943 0 00-5.946 5.94.848.848 0 01-.398.719z"/>
    <path fill="#23272C" d="M21.474 19.66a.85.85 0 011.2-.004l4.038 4.003a.848.848 0 11-1.196 1.205l-2.591-2.568v7.623a.849.849 0 01-1.7 0v-7.607l-2.475 2.482a.85.85 0 01-1.203-1.199l3.927-3.935z"/>
  </g>
  <defs>
    <clipPath id="clip0">
      <path fill="#fff" d="M0 0h30.8v30.8H0z" transform="translate(6.6 6.6)"/>
    </clipPath>
  </defs>
</svg>
