<svg xmlns="http://www.w3.org/2000/svg" width="28" height="28" fill="none" viewBox="0 0 28 28">
  <path stroke="#23272C" stroke-width="2" d="M14 27c7.18 0 13-5.82 13-13S21.18 1 14 1 1 6.82 1 14s5.82 13 13 13z"/>
  <path fill="#23272C" d="M16.951 21.15a1.155 1.155 0 01-.461-.1.937.937 0 01-.506-1.3 10.958 10.958 0 00-.271-11.475.933.933 0 01.443-1.318 1.128 1.128 0 011.45.4 12.738 12.738 0 01.313 13.23 1.085 1.085 0 01-.968.563zM13.164 19.674a1.071 1.071 0 01-.9-1.652 7.177 7.177 0 00.838-3.5 5.778 5.778 0 00-.944-3.361 1.075 1.075 0 01.159-1.509 1.073 1.073 0 011.508.159 7.846 7.846 0 011.421 4.71 9.166 9.166 0 01-1.178 4.663 1.071 1.071 0 01-.904.49zM9.547 17.378a1.072 1.072 0 01-.985-1.494c.123-.336.188-.691.19-1.049a2.3 2.3 0 00-.211-.953 1.078 1.078 0 01.44-1.445 1.066 1.066 0 011.443.421 4.37 4.37 0 01.473 1.978 5.17 5.17 0 01-.364 1.892 1.071 1.071 0 01-.986.65z"/>
</svg>
