<svg xmlns="http://www.w3.org/2000/svg" width="28" height="28" fill="none" viewBox="0 0 28 28">
  <path fill="#23272C" d="M14 2a11.921 11.921 0 00-8.485 3.515A11.921 11.921 0 002 14c0 3.205 1.248 6.219 3.515 8.485A11.921 11.921 0 0014 26c3.205 0 6.219-1.248 8.485-3.515A11.921 11.921 0 0026 14c0-3.205-1.248-6.219-3.515-8.485A11.922 11.922 0 0014 2zm0-2c7.732 0 14 6.268 14 14s-6.268 14-14 14S0 21.732 0 14 6.268 0 14 0z"/>
  <path fill="#23272C" d="M19.9 14.941h-4.963v4.96a.992.992 0 11-1.986 0v-4.964H7.99a.993.993 0 110-1.986h4.962V7.99a.993.993 0 111.986 0v4.963H19.9a.992.992 0 110 1.984v.005z"/>
</svg>
