<svg xmlns="http://www.w3.org/2000/svg" width="28" height="28" fill="none" viewBox="0 0 28 28">
  <path fill="#23272C" d="M14 2a11.921 11.921 0 00-8.485 3.515A11.921 11.921 0 002 14c0 3.205 1.248 6.219 3.515 8.485A11.921 11.921 0 0014 26c3.205 0 6.219-1.248 8.485-3.515A11.921 11.921 0 0026 14c0-3.205-1.248-6.219-3.515-8.485A11.922 11.922 0 0014 2zm0-2c7.732 0 14 6.268 14 14s-6.268 14-14 14S0 21.732 0 14 6.268 0 14 0z"/>
  <path fill="#23272C" d="M9.144 16.337a6.143 6.143 0 004.958 2.609 7.992 7.992 0 005.53-2.609 1.225 1.225 0 011.208 1.336 8.43 8.43 0 01-6.738 3.055c-4.577 0-6.1-3.055-6.1-3.055s-.064-1.336 1.144-1.336h-.002zm.892-8.336a1.718 1.718 0 101.585 1.06A1.708 1.708 0 0010.034 8h.002zm8.77 0a1.718 1.718 0 101.712 1.718 1.71 1.71 0 00-1.716-1.718h.004z"/>
</svg>
