<svg xmlns="http://www.w3.org/2000/svg" width="28" height="28" fill="none" viewBox="0 0 28 28">
  <path fill="#23272C" d="M14 0a14 14 0 110 28 14 14 0 010-28z"/>
  <path fill="#fff" d="M9.144 16.337a6.143 6.143 0 004.958 2.609 7.992 7.992 0 005.53-2.609 1.225 1.225 0 011.208 1.336 8.43 8.43 0 01-6.738 3.055c-4.577 0-6.1-3.055-6.1-3.055s-.064-1.336 1.144-1.336h-.002zm.892-8.336a1.718 1.718 0 101.585 1.06A1.708 1.708 0 0010.034 8h.002zm8.77 0a1.718 1.718 0 101.712 1.718 1.71 1.71 0 00-1.716-1.718h.004z"/>
</svg>
