<svg xmlns="http://www.w3.org/2000/svg" width="28" height="28" fill="none" viewBox="0 0 28 28">
  <path fill="#23272C" d="M14.004 24a12.389 12.389 0 005.264-1.166l3.156.636a.837.837 0 00.73-.21.765.765 0 00.202-.323.738.738 0 00.017-.376l-.53-2.414A8.575 8.575 0 0025 14.5C25 9.26 20.066 5 14 5S3 9.263 3 14.5C3 19.738 7.939 24 14.004 24zm5.152-2.747c-.13 0-.259.03-.374.088a10.667 10.667 0 01-4.778 1.118c-5.177 0-9.39-3.571-9.39-7.962 0-4.39 4.213-7.962 9.39-7.962 5.178 0 9.39 3.571 9.39 7.962a7.16 7.16 0 01-2.017 4.921.737.737 0 00-.186.67l.357 1.63-2.225-.45a.877.877 0 00-.167-.015zm-.858-6.756c0 .203.063.402.18.571.118.17.286.3.482.379.197.077.412.098.62.058.209-.04.4-.138.55-.282.15-.143.253-.327.294-.526a.987.987 0 00-.061-.594 1.039 1.039 0 00-.396-.46 1.108 1.108 0 00-1.354.127 1.006 1.006 0 00-.316.725v.002zm-5.366 0c0 .203.063.402.18.571.119.17.286.3.483.379.196.077.412.098.62.058.208-.04.4-.138.55-.282.15-.143.252-.327.293-.526a.987.987 0 00-.061-.594 1.039 1.039 0 00-.396-.46 1.108 1.108 0 00-1.354.127 1.006 1.006 0 00-.315.725v.002zm-5.366 0c0 .203.063.402.18.571.119.17.287.3.483.379.196.077.412.098.62.058.208-.04.4-.138.55-.282.15-.143.252-.327.293-.526a.987.987 0 00-.061-.594 1.039 1.039 0 00-.396-.46 1.108 1.108 0 00-1.354.127 1.006 1.006 0 00-.315.725v.002z"/>
  <path fill="#23272C" d="M14.004 24a12.389 12.389 0 005.264-1.166l3.156.636a.837.837 0 00.73-.21.765.765 0 00.202-.323.738.738 0 00.017-.376l-.53-2.414A8.575 8.575 0 0025 14.5C25 9.26 20.066 5 14 5S3 9.263 3 14.5C3 19.738 7.939 24 14.004 24zm5.152-2.747c-.13 0-.259.03-.374.088a10.667 10.667 0 01-4.778 1.118c-5.177 0-9.39-3.571-9.39-7.962 0-4.39 4.213-7.962 9.39-7.962 5.178 0 9.39 3.571 9.39 7.962a7.16 7.16 0 01-2.017 4.921.737.737 0 00-.186.67l.357 1.63-2.225-.45a.87.87 0 00-.167-.018v.003zm-.858-6.756c0 .203.063.402.18.571.118.17.286.3.482.379.197.077.412.098.62.058.209-.04.4-.138.55-.282.15-.143.253-.327.294-.526a.987.987 0 00-.061-.594 1.039 1.039 0 00-.396-.46 1.108 1.108 0 00-1.354.127 1.006 1.006 0 00-.316.725v.002zm-5.366 0c0 .203.063.402.18.571.119.17.286.3.483.379.196.077.412.098.62.058.208-.04.4-.138.55-.282.15-.143.252-.327.293-.526a.987.987 0 00-.061-.594 1.039 1.039 0 00-.396-.46 1.108 1.108 0 00-1.354.127 1.006 1.006 0 00-.315.725v.002zm-5.366 0c0 .203.063.402.18.571.119.17.287.3.483.379.196.077.412.098.62.058.208-.04.4-.138.55-.282.15-.143.252-.327.293-.526a.987.987 0 00-.061-.594 1.039 1.039 0 00-.396-.46 1.108 1.108 0 00-1.354.127 1.006 1.006 0 00-.315.725v.002z"/>
</svg>
