<svg xmlns="http://www.w3.org/2000/svg" width="28" height="28" fill="none" viewBox="0 0 28 28">
  <path fill="#EB5E52" d="M24 14.5c0 2.585-1.5 5.5-2.5 7.5-2 .5-5.018 1-7.5 1-5.523 0-10-3.806-10-8.5S8.477 6 14 6s10 3.806 10 8.5z"/>
  <path fill="#EFEFEF" d="M18.478 15.068a.997.997 0 01-.181-.572v-.002c0-.272.114-.533.315-.725a1.107 1.107 0 011.354-.128c.177.113.315.274.396.462a.986.986 0 01.062.593c-.042.2-.144.383-.294.527a1.117 1.117 0 01-1.17.223 1.065 1.065 0 01-.482-.378zM13.112 15.068a.997.997 0 01-.18-.572v-.002c0-.272.113-.533.314-.725a1.108 1.108 0 011.354-.128c.177.113.315.274.396.462a.986.986 0 01.062.593c-.042.2-.144.383-.294.527a1.117 1.117 0 01-1.17.223 1.065 1.065 0 01-.482-.378zM7.746 15.068a.997.997 0 01-.18-.572v-.002c0-.272.113-.533.314-.725a1.108 1.108 0 011.354-.128c.177.113.315.274.396.462a.987.987 0 01.062.593c-.041.2-.144.383-.294.527a1.117 1.117 0 01-1.17.223 1.065 1.065 0 01-.482-.378z"/>
  <g>
    <path fill="#EB5E52" d="M14.004 24a12.389 12.389 0 005.264-1.166l3.156.636a.837.837 0 00.73-.21.765.765 0 00.202-.323.738.738 0 00.017-.376l-.53-2.414A8.575 8.575 0 0025 14.5C25 9.26 20.066 5 14 5S3 9.263 3 14.5C3 19.738 7.939 24 14.004 24zm5.152-2.747c-.13 0-.259.03-.374.088a10.667 10.667 0 01-4.778 1.118c-5.177 0-9.39-3.571-9.39-7.962 0-4.39 4.213-7.962 9.39-7.962 5.178 0 9.39 3.571 9.39 7.962a7.16 7.16 0 01-2.017 4.921.737.737 0 00-.186.67l.357 1.63-2.225-.45a.877.877 0 00-.167-.015z"/>
    <path fill="#EB5E52" d="M14.004 24a12.389 12.389 0 005.264-1.166l3.156.636a.837.837 0 00.73-.21.765.765 0 00.202-.323.738.738 0 00.017-.376l-.53-2.414A8.575 8.575 0 0025 14.5C25 9.26 20.066 5 14 5S3 9.263 3 14.5C3 19.738 7.939 24 14.004 24zm5.152-2.747c-.13 0-.259.03-.374.088a10.667 10.667 0 01-4.778 1.118c-5.177 0-9.39-3.571-9.39-7.962 0-4.39 4.213-7.962 9.39-7.962 5.178 0 9.39 3.571 9.39 7.962a7.16 7.16 0 01-2.017 4.921.737.737 0 00-.186.67l.357 1.63-2.225-.45a.87.87 0 00-.167-.018v.003z"/>
  </g>
</svg>
