<svg xmlns="http://www.w3.org/2000/svg" width="16" height="16" fill="none" viewBox="0 0 16 16">
  <path fill="#F79090" d="M8 0a8 8 0 110 16A8 8 0 018 0z"/>
  <path fill="#fff" d="M7.324 9.996a2.673 2.673 0 002.62-3.19 2.67 2.67 0 00-3.642-1.947 2.671 2.671 0 001.022 5.137zM9.91 9.44l.811.81.473-.471a.334.334 0 01.472.472l-.472.47.71.71a.334.334 0 11-.473.472l-.71-.709-.472.472a.335.335 0 01-.473-.472l.473-.472-.811-.81A3.333 3.333 0 014 7.242 3.329 3.329 0 017.251 4a3.333 3.333 0 013.403 3.082 3.329 3.329 0 01-.745 2.356z"/>
</svg>
