<svg xmlns="http://www.w3.org/2000/svg" width="12" height="12" fill="none" viewBox="0 0 12 12">
  <path fill="#ACB0B5" d="M6.002 11c.996 0 1.978-.21 2.872-.614l1.721.335c.071.013.145.01.214-.009a.448.448 0 00.184-.102.4.4 0 00.11-.17.375.375 0 00.01-.197l-.29-1.27A4.424 4.424 0 0012 6c0-2.758-2.691-5-6-5S0 3.244 0 6c0 2.757 2.694 5 6.002 5zm2.81-1.446a.472.472 0 00-.204.047 5.993 5.993 0 01-2.606.588C3.178 10.19.88 8.31.88 6c0-2.311 2.298-4.191 5.122-4.191 2.825 0 5.122 1.88 5.122 4.19a3.7 3.7 0 01-1.1 2.59.396.396 0 00-.097.166.374.374 0 00-.005.187l.195.858-1.214-.236a.488.488 0 00-.09-.009zm-.468-3.556c0 .107.034.212.099.301a.578.578 0 00.263.2.63.63 0 00.338.03.602.602 0 00.3-.148.53.53 0 00.16-.277.503.503 0 00-.034-.313.553.553 0 00-.215-.242.62.62 0 00-.74.067.521.521 0 00-.17.381v.001zm-2.927 0c0 .107.035.212.099.301a.578.578 0 00.263.2.63.63 0 00.338.03.602.602 0 00.3-.148.53.53 0 00.16-.277.503.503 0 00-.033-.313.553.553 0 00-.216-.242.62.62 0 00-.739.067.521.521 0 00-.172.381v.001zm-2.927 0c0 .107.035.212.1.301a.578.578 0 00.262.2.63.63 0 00.338.03.602.602 0 00.3-.148.53.53 0 00.16-.277.503.503 0 00-.033-.313.553.553 0 00-.216-.242.62.62 0 00-.739.067.52.52 0 00-.172.381v.001z"/>
  <path fill="#ACB0B5" d="M6.002 11c.996 0 1.978-.21 2.872-.614l1.721.335c.071.013.145.01.214-.009a.448.448 0 00.184-.102.4.4 0 00.11-.17.375.375 0 00.01-.197l-.29-1.27A4.424 4.424 0 0012 6c0-2.758-2.691-5-6-5S0 3.244 0 6c0 2.757 2.694 5 6.002 5zm2.81-1.446a.472.472 0 00-.204.047 5.993 5.993 0 01-2.606.588C3.178 10.19.88 8.31.88 6c0-2.311 2.298-4.191 5.122-4.191 2.825 0 5.122 1.88 5.122 4.19a3.7 3.7 0 01-1.1 2.59.396.396 0 00-.097.166.374.374 0 00-.005.187l.195.858-1.214-.236a.488.488 0 00-.09-.01v.001zm-.468-3.556c0 .107.034.212.099.301a.578.578 0 00.263.2.63.63 0 00.338.03.602.602 0 00.3-.148.53.53 0 00.16-.277.503.503 0 00-.034-.313.553.553 0 00-.215-.242.62.62 0 00-.74.067.521.521 0 00-.17.381v.001zm-2.927 0c0 .107.035.212.099.301a.578.578 0 00.263.2.63.63 0 00.338.03.602.602 0 00.3-.148.53.53 0 00.16-.277.503.503 0 00-.033-.313.553.553 0 00-.216-.242.62.62 0 00-.739.067.521.521 0 00-.172.381v.001zm-2.927 0c0 .107.035.212.1.301a.578.578 0 00.262.2.63.63 0 00.338.03.602.602 0 00.3-.148.53.53 0 00.16-.277.503.503 0 00-.033-.313.553.553 0 00-.216-.242.62.62 0 00-.739.067.52.52 0 00-.172.381v.001z"/>
</svg>
