<svg xmlns="http://www.w3.org/2000/svg" width="16" height="16" fill="none" viewBox="0 0 16 16">
  <path fill="#23272C" d="M5.579 13.997a.464.464 0 00.218-.047.527.527 0 00.181-.147l4.566-5.066c.144-.16.259-.353.337-.564a1.934 1.934 0 000-1.339 1.755 1.755 0 00-.337-.564L5.978 1.204a.573.573 0 00-.183-.149.508.508 0 00-.442-.008.566.566 0 00-.187.141.656.656 0 00-.125.214.722.722 0 00.008.502.65.65 0 00.13.21l4.566 5.065c.071.089.111.204.113.325 0 .13-.056.194-.113.325l-4.566 5.066a.635.635 0 00-.127.207.703.703 0 000 .495c.03.078.073.148.127.207a.457.457 0 00.178.156c.07.033.146.046.222.037z"/>
</svg>
