<svg xmlns="http://www.w3.org/2000/svg" width="44" height="44" fill="none" viewBox="0 0 44 44">
  <circle cx="22" cy="22" r="22" fill="#EB5E52" opacity=".1"/>
  <path fill="#EB5E52" d="M28.23 21.313a1.365 1.365 0 01.406-.973 1.386 1.386 0 011.51-.298 1.384 1.384 0 01.749.744c.07.167.105.346.105.526 0 4.47-3.302 8.171-7.615 8.833v1.48c0 .365-.146.714-.406.972a1.39 1.39 0 01-1.958 0 1.37 1.37 0 01-.406-.972v-1.48C16.302 29.483 13 25.78 13 21.313a1.369 1.369 0 01.855-1.271 1.393 1.393 0 011.509.298 1.376 1.376 0 01.405.973c0 1.64.657 3.214 1.825 4.375A6.253 6.253 0 0022 27.5a6.253 6.253 0 004.406-1.812 6.166 6.166 0 001.825-4.375zM22 11a4.876 4.876 0 013.427 1.41 4.811 4.811 0 011.42 3.402v5.5c0 1.277-.511 2.5-1.42 3.403A4.863 4.863 0 0122 26.125a4.863 4.863 0 01-3.427-1.41 4.796 4.796 0 01-1.42-3.402v-5.5c0-1.277.511-2.5 1.42-3.404A4.863 4.863 0 0122 11z"/>
</svg>
