<svg xmlns="http://www.w3.org/2000/svg" width="68" height="68" fill="none" viewBox="0 0 68 68">
  <path fill="#EB5E52" d="M68 34C68 15.222 52.778 0 34 0S0 15.222 0 34s15.222 34 34 34 34-15.222 34-34z"/>
  <path fill="#fff" d="M19.666 39.54h-.688a.568.568 0 00-.09-.026 2.547 2.547 0 01-1.865-1.081 5.315 5.315 0 01-.739-1.495c-.155-.476-.279-.963-.416-1.445v-.468a6.57 6.57 0 01.211-.72 3.824 3.824 0 011.11-1.4 14.012 14.012 0 012.03-1.387 19.73 19.73 0 013.626-1.754c1.795-.59 3.65-.976 5.53-1.151a47.76 47.76 0 014.353-.261.951.951 0 00.12-.017h2.644c.05.007.098.016.148.02 1.227.074 2.454.128 3.678.226 1.503.126 2.993.366 4.46.718a15.132 15.132 0 015.763 2.474c.68.466 1.325.983 1.926 1.546.414.393.734.874.938 1.407.052.15.083.307.125.46v.468c-.091.35-.179.698-.276 1.046a7.679 7.679 0 01-.611 1.686 2.003 2.003 0 01-1.395 1.042c-.237.049-.478.073-.718.113h-.523c-.055-.008-.113-.017-.162-.021-.279-.023-.559-.034-.837-.068a25.164 25.164 0 01-4.816-1.148 2.188 2.188 0 01-1.528-1.677 6.513 6.513 0 01-.146-1.196 1.89 1.89 0 00-1.042-1.7 4.283 4.283 0 00-.757-.319 9.186 9.186 0 00-2.662-.357c-1.642-.018-3.287-.012-4.925-.013-.922-.02-1.844.048-2.753.203a4.289 4.289 0 00-1.587.58 1.789 1.789 0 00-.85 1.319c-.036.3-.034.604-.064.907a2.481 2.481 0 01-1.666 2.266 20.347 20.347 0 01-4.797 1.152c-.25.032-.5.055-.75.083l.001-.013z"/>
</svg>
