<svg xmlns="http://www.w3.org/2000/svg" width="12" height="12" fill="none" viewBox="0 0 12 12">
  <path fill="#EB5E52" d="M12 6A6 6 0 100 6a6 6 0 0012 0z"/>
  <path fill="#fff" d="M3.032 8.74a4.04 4.04 0 01-.81-1.394 4.231 4.231 0 01.202-3.202c.24-.49.572-.92.976-1.266a3.664 3.664 0 011.372-.742 3.522 3.522 0 011.536-.091 3.606 3.606 0 011.441.574c.438.296.813.685 1.103 1.144l-.836.518c.34.501.522 1.102.525 1.72a3.097 3.097 0 01-.512 1.724l.84.511c-.313.497-.728.913-1.214 1.216a3.535 3.535 0 01-3.239.28 3.74 3.74 0 01-1.382-.991h-.002zm2.7-5.69a2.65 2.65 0 00-1.353.394 2.872 2.872 0 00-1 1.048c-.245.435-.38.93-.393 1.436A3.12 3.12 0 003.3 7.385c.221.448.546.83.944 1.106a2.632 2.632 0 002.71.195c.43-.217.8-.548 1.074-.961l-.292-.18-1.445-.879a.325.325 0 00-.34 0l-.8.496a.168.168 0 01-.176 0 .183.183 0 01-.065-.069A.198.198 0 014.888 7V5.03c0-.033.008-.065.023-.094a.183.183 0 01.065-.068.168.168 0 01.175-.001l.803.488a.325.325 0 00.34 0l1.439-.895.29-.18a2.833 2.833 0 00-.99-.905 2.638 2.638 0 00-1.269-.323h-.031zm3.134 5.205a4.19 4.19 0 00.645-2.242c0-.8-.225-1.58-.645-2.242l.424-.26c.463.74.71 1.611.71 2.502 0 .89-.247 1.76-.71 2.502l-.424-.26z"/>
</svg>
