<svg xmlns="http://www.w3.org/2000/svg" width="24" height="24" fill="none" viewBox="0 0 24 24">
  <path fill="#23272C" fill-rule="evenodd" stroke="#23272C" stroke-width=".2" d="M4.587 21.452h12.94a1.62 1.62 0 001.613-1.518l1.852-6.943v-.09a3.469 3.469 0 00-3.467-3.463h-2.207c.08-.535.123-1.075.128-1.617V6.435a3.466 3.466 0 00-6.93 0v1.386a3.289 3.289 0 01-1.163 2.08H4.587a1.62 1.62 0 00-1.618 1.617v8.317a1.619 1.619 0 001.618 1.617zm-.163-10.097a.231.231 0 01.163-.068H6.59v8.78H4.587a.231.231 0 01-.23-.23v-8.319c0-.06.024-.12.067-.163zm3.552 8.712h9.55a.231.231 0 00.231-.23v-.092l1.847-6.925a2.082 2.082 0 00-2.078-2h-3.869l.161-.826a12.06 12.06 0 00.242-2.178v-1.38a2.08 2.08 0 00-4.159 0V7.82a4.622 4.622 0 01-1.8 3.284l-.125.114v8.848z" clip-rule="evenodd"/>
</svg>
