<svg xmlns="http://www.w3.org/2000/svg" width="24" height="24" fill="none" viewBox="0 0 24 24">
  <path fill="#23272C" d="M21.93 10.279l-3-5.138A4.28 4.28 0 0015.251 3H9.257a4.228 4.228 0 00-3.682 2.141l-3 5.138a4.333 4.333 0 000 4.324l3 5.138a4.28 4.28 0 003.682 2.141h5.994a4.227 4.227 0 003.682-2.141l3-5.138a4.333 4.333 0 000-4.324h-.003zM20.475 13.7l-3 5.138a2.664 2.664 0 01-2.226 1.284H9.257a2.569 2.569 0 01-2.226-1.284l-3-5.138a2.512 2.512 0 010-2.569l3-5.131a2.663 2.663 0 012.226-1.287h5.994A2.57 2.57 0 0117.478 6l3 5.138a2.512 2.512 0 010 2.569l-.003-.007z"/>
  <path fill="#23272C" d="M12.254 8.566a3.853 3.853 0 103.853 3.853 3.838 3.838 0 00-3.853-3.853zm0 5.994a2.14 2.14 0 112.14-2.14 2.12 2.12 0 01-2.14 2.14z"/>
</svg>
