<svg xmlns="http://www.w3.org/2000/svg" width="24" height="24" fill="none" viewBox="0 0 24 24">
  <path fill="#23272C" d="M20.655 10.476a8.69 8.69 0 00-8.494-8.477h-.655a8.692 8.692 0 00-8.5 8.477A2.378 2.378 0 002 12.739v1.311a2.622 2.622 0 105.245 0v-1.311A2.2 2.2 0 005 10.281c.256-3.8 2.873-6.483 6.5-6.483h.655a6.41 6.41 0 016.533 6.359 2.332 2.332 0 00-2.272 2.581v1.311a2.455 2.455 0 001.74 2.468 6.607 6.607 0 01-3.981 2.253c-.222-.666-.656-.782-1.358-.784a1.639 1.639 0 100 3.278 2.074 2.074 0 001.665-.7 8.245 8.245 0 005.7-3.966 2.5 2.5 0 001.485-2.545v-1.314a2.38 2.38 0 00-1.012-2.262v-.001zM5.933 12.739v1.311a1.31 1.31 0 11-2.622 0v-1.311a1.311 1.311 0 012.622 0zm14.423 1.311a1.31 1.31 0 01-1.256 1.305l-.051-.024c0 .011-.012.019-.016.029a1.31 1.31 0 01-1.3-1.31v-1.311a1.311 1.311 0 012.622 0v1.311z"/>
</svg>
