<svg xmlns="http://www.w3.org/2000/svg" width="28" height="28" fill="none" viewBox="0 0 28 28">
  <path fill="#23272C" d="M19.493 15.777a6.905 6.905 0 001.876-3.547 6.871 6.871 0 00-.417-3.984A6.936 6.936 0 0018.38 5.16a7.021 7.021 0 00-7.731 0 6.937 6.937 0 00-2.572 3.087 6.872 6.872 0 00-.418 3.984 6.906 6.906 0 001.877 3.547 9.689 9.689 0 00-3.667 2.914A9.115 9.115 0 004 24.24a.78.78 0 00.24.538.793.793 0 001.098 0 .78.78 0 00.24-.538A7.746 7.746 0 017.08 19.71a7.849 7.849 0 013.887-2.813 6.964 6.964 0 003.52.952c1.242 0 2.46-.329 3.532-.951a7.824 7.824 0 013.899 2.806 7.72 7.72 0 011.503 4.54.78.78 0 00.24.537.793.793 0 001.098 0 .78.78 0 00.24-.538 9.226 9.226 0 00-1.497-5.039 9.337 9.337 0 00-4.014-3.425l.004-.001zM9.115 10.925c0-1.06.317-2.096.91-2.977a5.393 5.393 0 012.425-1.973 5.443 5.443 0 013.121-.305 5.416 5.416 0 012.766 1.466 5.344 5.344 0 011.479 2.743 5.318 5.318 0 01-.308 3.096 5.368 5.368 0 01-1.99 2.405 5.433 5.433 0 01-3 .903A5.437 5.437 0 0110.7 14.71a5.348 5.348 0 01-1.586-3.785z"/>
</svg>
