<svg xmlns="http://www.w3.org/2000/svg" width="28" height="28" fill="none" viewBox="0 0 28 28">
  <path fill="#EB5E52" d="M24.03 24.988l-19.99-.016a.83.83 0 01-.718-.141.82.82 0 01-.322-.65 9.54 9.54 0 011.958-5.81 10.186 10.186 0 013.839-3.048 7.221 7.221 0 01-1.964-3.71 7.185 7.185 0 01.437-4.169 7.26 7.26 0 012.693-3.231 7.36 7.36 0 018.095 0 7.263 7.263 0 012.694 3.231 7.185 7.185 0 01.437 4.168 7.22 7.22 0 01-1.963 3.71 9.785 9.785 0 014.202 3.586A9.666 9.666 0 0125 24.181a.81.81 0 01-.244.58.823.823 0 01-.584.239c-.048 0-.096-.004-.143-.012z"/>
</svg>
