<svg xmlns="http://www.w3.org/2000/svg" width="24" height="24" fill="none" viewBox="0 0 24 24">
  <path fill="#fff" fill-opacity=".01" d="M24 0H0v24h24V0z"/>
  <path fill="#fff" d="M7.5 3.999a5.5 5.5 0 00-5.5 5.5c0 5.5 6.5 10.5 10 11.663C15.5 20 22 15 22 9.5a5.5 5.5 0 00-10-3.163 5.493 5.493 0 00-4.5-2.337z"/>
  <path fill="#23272C" fill-rule="evenodd" d="M2 9.737C2 6.57 4.629 4 7.872 4c1.61 0 3.068.634 4.128 1.658A5.925 5.925 0 0116.128 4C19.371 4 22 6.569 22 9.737c0 2.776-1.665 5.323-3.622 7.254-1.965 1.94-4.366 3.4-6.118 3.968a.844.844 0 01-.52 0c-1.752-.569-4.153-2.029-6.118-3.968C3.665 15.06 2 12.513 2 9.737zm5.872-4.123c-2.331 0-4.22 1.846-4.22 4.123 0 2.156 1.316 4.315 3.143 6.119C8.51 17.547 10.55 18.8 12 19.337c1.45-.536 3.49-1.79 5.205-3.481 1.827-1.804 3.144-3.963 3.144-6.119 0-2.277-1.89-4.123-4.22-4.123a4.244 4.244 0 00-3.454 1.752.832.832 0 01-.675.343.832.832 0 01-.675-.343 4.244 4.244 0 00-3.453-1.752z" clip-rule="evenodd"/>
</svg>
