<svg xmlns="http://www.w3.org/2000/svg" width="24" height="24" fill="none" viewBox="0 0 24 24">
  <path fill="#23272C" d="M16.864 20.273H6.409A3.413 3.413 0 013 16.863V6.41A3.414 3.414 0 016.41 3h5.226a.682.682 0 010 1.364H6.41a2.05 2.05 0 00-2.045 2.045v10.455a2.05 2.05 0 002.045 2.045h10.455a2.05 2.05 0 002.045-2.045v-5.228a.682.682 0 111.364 0v5.228a3.414 3.414 0 01-3.41 3.409z"/>
  <path fill="#23272C" d="M11.41 12.545a.686.686 0 01-.684-.682.678.678 0 01.201-.482L19.11 3.2a.682.682 0 01.964.963l-8.182 8.182a.686.686 0 01-.482.2z"/>
  <path fill="#23272C" d="M19.591 4.364h-3.636a.682.682 0 110-1.364h3.636a.682.682 0 110 1.364z"/>
  <path fill="#23272C" d="M19.591 8a.682.682 0 01-.682-.682V3.682a.682.682 0 111.364 0v3.636A.682.682 0 0119.59 8z"/>
</svg>
