<svg xmlns="http://www.w3.org/2000/svg" width="28" height="28" fill="none" viewBox="0 0 28 28">
  <path stroke="#23272C" stroke-width="1.5" d="M11.882 4.75h4.236c5.035 0 9.132 4.133 9.132 9.25v0c0 5.117-4.097 9.25-9.132 9.25h-4.236c-5.035 0-9.132-4.133-9.132-9.25v0c0-5.117 4.097-9.25 9.132-9.25z"/>
  <path fill="#23272C" d="M18.412 13.412h-3.824V9.588c0-.353-.235-.588-.588-.588s-.588.235-.588.588v3.824H9.588c-.353 0-.588.235-.588.588s.235.588.588.588h3.824v3.824c0 .353.235.588.588.588s.588-.235.588-.588v-3.824h3.824c.353 0 .588-.235.588-.588s-.235-.588-.588-.588z"/>
</svg>
