<svg xmlns="http://www.w3.org/2000/svg" width="44" height="44" fill="none" viewBox="0 0 44 44">
  <circle cx="22" cy="22" r="22" fill="#5219FF" opacity=".1"/>
  <path fill="#875DFF" d="M30.654 12.135c-.345-.18-.69-.18-.863 0l-17.273 9.03c-.345 0-.518.361-.518.722s.173.723.345.723l4.146 2.708c.345.18.69.18 1.036-.18l9.155-8.669.345.181-8.29 9.21c-.173.18-.173.361-.173.542v3.973c0 .36.172.722.518.903.345.18.69 0 .863-.18l2.073-2.168 4.146 2.89c.172.18.345.18.518.18h.345c.346-.18.518-.361.518-.722L31 13.219c0-.542 0-.903-.346-1.084z"/>
</svg>
