<svg xmlns="http://www.w3.org/2000/svg" width="28" height="28" fill="none" viewBox="0 0 28 28">
  <circle cx="14" cy="14" r="10.25" stroke="#23272C" stroke-width="1.5"/>
  <path fill="#23272C" d="M17.009 10.955l-1.147 4.592a.521.521 0 01-.378.38l-4.574 1.15 1.146-4.591a.521.521 0 01.378-.38l4.575-1.15zm1.425-1.952h-.13l-6.223 1.562a2.072 2.072 0 00-1.508 1.51L9.017 18.35a.522.522 0 00.518.65h.13l6.253-1.561a2.072 2.072 0 001.51-1.515l1.556-6.272a.523.523 0 00-.519-.65l-.031.002zm-4.476 4.233a.776.776 0 00-.719.482.784.784 0 00.567 1.065.775.775 0 00.799-.332.783.783 0 00.073-.734.782.782 0 00-.719-.486l-.001.005z"/>
</svg>
