<svg xmlns="http://www.w3.org/2000/svg" width="16" height="16" fill="none" viewBox="0 0 16 16">
  <g clip-path="url(#clip0)">
    <path fill="#fff" fill-opacity=".01" d="M16 0H0v16h16V0z"/>
    <path fill="#23272C" d="M7.325 8.6h1.19l.16-1.2h-1.19l-.16 1.2zM8 0a8 8 0 11-4.109 14.866c-.125-.075-.25-.148-.376-.221l-1.957.534a.6.6 0 01-.737-.737l.533-1.955c-.206-.35-.341-.586-.408-.711A8 8 0 018 0zm1.68 4.405a.6.6 0 00-.675.516L8.835 6.2h-1.19l.15-1.12a.6.6 0 10-1.19-.16l-.17 1.28H5a.6.6 0 100 1.2h1.275l-.16 1.2H5a.6.6 0 000 1.2h.955l-.15 1.12a.6.6 0 001.19.16l.17-1.28h1.19l-.15 1.12a.6.6 0 001.19.16l.17-1.28H11a.6.6 0 000-1.2H9.725l.16-1.2H11a.6.6 0 000-1.2h-.955l.15-1.12a.6.6 0 00-.516-.675z"/>
  </g>
  <defs>
    <clipPath id="clip0">
      <path fill="#fff" d="M0 0h16v16H0z"/>
    </clipPath>
  </defs>
</svg>
