<svg xmlns="http://www.w3.org/2000/svg" width="12" height="12" fill="none" viewBox="0 0 12 12">
  <circle cx="6" cy="6" r="6" fill="#EB5E52"/>
  <path fill="#fff" d="M2.25 2.75h3.323v.308c-.2.03-.34.077-.416.144-.077.067-.116.17-.116.313 0 .201.129.63.386 1.284a41.1 41.1 0 001.086 2.458c.488-1.19.823-2.049 1.003-2.575.18-.527.27-.889.27-1.086 0-.164-.047-.289-.138-.37-.093-.083-.247-.138-.463-.163V2.75H9.75v.313c-.252.02-.46.107-.63.258-.167.152-.361.459-.579.923a67.341 67.341 0 00-.976 2.238c-.358.86-.724 1.778-1.096 2.75-.175.351-.727.363-.879 0a372.43 372.43 0 01-.827-1.88c-1.25-2.86-2.074-4.29-2.468-4.29H2.25V2.75z"/>
</svg>
